# xmcd
#
# Track frame offsets:
#	150
#	17006
#	39871
#	56616
#	75616
#	93945
#	112863
#	129964
#	146995
#	162203
#	186311
#	202521
#	224796
#	242629
#
# Disc length: 3503 seconds
#
# Revision: 5
# Processed by: cddbd v1.5.2PL0 Copyright (c) Steve Scherf et al.
# Submitted via: EZCDAudioConverter 8.0.2.1
#
DISCID=b50dad0e
DTITLE=CLAUDINHO and BUCHECHA - NOSSO SONHO NÃO VAI TERMINAR [CD 044006-4630-2) 
DTITLE=GLOBO UNIVERSAL
DYEAR=2002
DGENRE=Funk
TTITLE0=FICO ASSIM SEM VOCÊ (BY GILMAR SINISTRO)
TTITLE1=NOSSO SONHO (BY GILMAR SINISTRO)
TTITLE2=XERETA - SUPER FREAK (BY GILMAR SINISTRO)
TTITLE3=CONQUISTA (BY GILMAR SINISTRO)
TTITLE4=GOSTOSA (BY GILMAR SINISTRO)
TTITLE5=SÓ LOVE (BY GILMAR SINISTRO)
TTITLE6=QUERO TE ENCONTRAR (BY GILMAR SINISTRO)
TTITLE7=BERRECO (BY GILMAR SINISTRO)
TTITLE8=MEU COMPROMISSO (BY GILMAR SINISTRO)
TTITLE9=RAP DO SALGUEIRO (BY GILMAR SINISTRO)
TTITLE10=MALES (BY GILMAR SINISTRO)
TTITLE11=CARROSSEL DE EMOÇÕES (BY GILMAR SINISTRO)
TTITLE12=ENQUANTO EU VIVER (BY GILMAR SINISTRO)
TTITLE13=DESTINO (BY GILMAR SINISTRO)
EXTD=
EXTT0=
EXTT1=
EXTT2=
EXTT3=
EXTT4=
EXTT5=
EXTT6=
EXTT7=
EXTT8=
EXTT9=
EXTT10=
EXTT11=
EXTT12=
EXTT13=
PLAYORDER=
